<svg id="Layer_1" data-name="Layer 1" xmlns="http://www.w3.org/2000/svg" viewBox="0 0 2000 2000"><defs><style>.cls-1{fill:#ffeadc;}.cls-2,.cls-3{stroke:#000;}.cls-2{stroke-miterlimit:10;stroke-width:5px;}.cls-3{fill:none;stroke-linecap:round;stroke-linejoin:round;stroke-width:9px;}.cls-4{fill:#0143ae;}.cls-5{fill:#0061fa;}.cls-6{fill:#127eff;}.cls-7{fill:#feb0a3;}.cls-8{fill:#fff;}.cls-9{fill:#ff2b4a;}</style></defs><polygon class="cls-1" points="1432.29 384.99 422.5 531.55 179.95 1117.96 619.18 1727.3 1648.45 1622.07 1820.05 963.65 1432.29 384.99"/><rect class="cls-2" x="246.53" y="632.36" width="314.79" height="34.46" rx="17.23"/><rect class="cls-2" x="1414.8" y="1535.11" width="339.84" height="34.46" rx="17.23"/><path class="cls-3" d="M1712.38,559.65s-7.69-86.14-61.14-86.14c-49.92,0-63,86.14-42,86.14s14.58-49.48-15.9-49.48-34,49.48-34,49.48h-166"/><path class="cls-3" d="M220.86,1561.16s7.95-83.93,59.2-83.93,81.28,83.93,37.1,83.93S288.45,1475,341.9,1475c49.92,0,63,86.14,42,86.14s-14.58-49.48,15.9-49.48,34,49.48,34,49.48H561.32"/><circle class="cls-2" cx="1240.86" cy="1256.74" r="16.86"/><circle class="cls-2" cx="1683.89" cy="1650.79" r="6.57"/><circle class="cls-2" cx="1616.14" cy="1239.88" r="6.57"/><circle class="cls-2" cx="316.92" cy="1352.46" r="13.57"/><circle class="cls-2" cx="937.42" cy="1072.24" r="3.28"/><circle class="cls-2" cx="1282.27" cy="831.46" r="3.28"/><circle class="cls-2" cx="758.85" cy="946.99" r="6.57"/><circle class="cls-2" cx="1264.29" cy="1046.72" r="6.57"/><circle class="cls-2" cx="1728.85" cy="852.57" r="24.53"/><circle class="cls-2" cx="251.7" cy="977.82" r="30.83"/><circle class="cls-2" cx="473.33" cy="516.58" r="19.95"/><rect class="cls-4" x="1138.48" y="1183.13" width="223.03" height="486.86"/><polygon class="cls-5" points="1361.51 1183.13 1138.48 1183.13 1262.08 1330.44 1485.12 1330.44 1361.51 1183.13"/><rect class="cls-5" x="627.28" y="1183.13" width="511.2" height="486.86"/><polygon class="cls-6" points="1138.48 1183.13 627.28 1183.13 503.67 1330.44 1014.87 1330.44 1138.48 1183.13"/><path class="cls-3" d="M967.63,917.62c-4.46,10.5-2.89,22.56,0,33.59s7.14,21.86,7.8,33.25c1,18.24-7.11,35.8-8.11,54-.85,15.54,3.52,30.83,5.51,46.26s1.16,32.42-8.5,44.62"/><path class="cls-3" d="M1185.81,883.15c11.26,3.77,15,18.44,12.38,30s-9.54,21.77-12.88,33.17c-4.92,16.85-1.63,35,3.66,51.75s12.57,32.92,15.82,50.17,1.93,36.37-8.62,50.4"/><path class="cls-3" d="M796.17,832.16c-7.3,28.44,5.64,57.57,14.79,85.47,10.56,32.21,16.22,67.3,7.12,100-9,32.19-32,61.6-29.28,94.91"/><path class="cls-7" d="M936.58,596.59a139.9,139.9,0,0,0-279.8,0c0,120.88,109.65,207.27,134.79,225.49L777,847.37h39.42L801.86,822.2C827.13,804.72,936.58,721.8,936.58,596.59Z"/><path class="cls-6" d="M1132.86,465.12a155.82,155.82,0,0,0-311.63,0c0,134.63,122.13,230.85,150.13,251.14l-16.27,28.17H999l-16.18-28C1011,696.93,1132.86,604.57,1132.86,465.12Z"/><path class="cls-8" d="M1334.13,612.5a155.82,155.82,0,0,0-311.63,0c0,134.63,122.13,230.85,150.13,251.14l-16.27,28.17h43.91l-16.18-28C1212.23,844.31,1334.13,752,1334.13,612.5Z"/><path class="cls-9" d="M1112.4,672.45a145.59,145.59,0,0,0-291.17,0c0,125.79,114.11,215.69,140.27,234.64l-15.2,26.32h41l-15.12-26.18C998.51,889,1112.4,802.74,1112.4,672.45Z"/><path class="cls-3" d="M789.14,821.26a16.31,16.31,0,0,1,14.19,0"/><path class="cls-3" d="M957.85,907.79a46,46,0,0,1,18.66.84"/><path class="cls-3" d="M1167.66,864.62a64.19,64.19,0,0,1,19.41-1"/><path class="cls-3" d="M1332.16,832.18c19.91-4.18,41.81,10.33,45.72,30.29S1367,904.14,1347,907.76c-7.29,1.32-15.46.26-20.91-4.76s-6.84-14.6-1.59-19.83c3.92-3.9,10.42-4.39,15.46-2.1S1348.63,888,1351,893a36.86,36.86,0,0,1-29.71,52.39c-6,.59-13.76-1.84-14.27-7.88-.32-4,3.08-7.58,7-8.45s8,.46,11.35,2.55c12.45,7.72,16.35,25.15,11.6,39s-16.4,24.36-29.13,31.6"/><path class="cls-3" d="M1088.69,951.64c-11.66,2.14-22.81,8.28-29.76,17.9s-9.2,22.81-4.57,33.74,16.57,18.67,28.35,17.23,21.8-12.88,20.55-24.67c-.28-2.58-1.38-5.48-3.86-6.22-2-.6-4.06.42-5.75,1.6-13.36,9.31-14.81,31.51-2.77,42.48s34,7.46,42-6.71"/><path class="cls-3" d="M678,1009.71c10.57-1.07,21.5-2.11,31.63,1.1s19.35,11.82,19.81,22.44c.31,7.26-3.66,14.41-9.67,18.51a27,27,0,0,1-20.89,3.66c-4.71-1-9.38-3.42-11.9-7.53s-2.18-10.15,1.62-13.13,9.5-2,14.16-.35c13.11,4.56,26.1,13.92,28.52,27.59,2.55,14.46-8.41,28.88-22.17,34s-29.28,2.69-43-2.45"/><path class="cls-3" d="M621.49,932.78a68.74,68.74,0,0,0,60.21-22.32c9.22-10.51,14.72-27.2,6-38.1-7.92-9.84-23.48-9.52-34.84-4-3.69,1.8-7.3,4.18-9.33,7.75s-2,8.56,1,11.39c4.8,4.55,12.6.9,18-2.93,8.95-6.35,18-13.11,23.83-22.39s8-21.71,2.49-31.22c-8-13.86-28.32-15.52-42.69-8.51-5,2.43-10.14,6.91-9.26,12.37,1,6.44,9.55,8.53,15.93,7.12,14.62-3.22,25.76-18,24.84-33s-13.81-28.24-28.71-29.63"/></svg>