<svg id="Layer_1" data-name="Layer 1" xmlns="http://www.w3.org/2000/svg" viewBox="0 0 2000 2000"><defs><style>.cls-1{fill:#ffeadc;}.cls-2,.cls-3,.cls-9{stroke:#000;}.cls-2,.cls-4,.cls-7{stroke-miterlimit:10;}.cls-2,.cls-4,.cls-7,.cls-8{stroke-width:5px;}.cls-3,.cls-6,.cls-7,.cls-8{fill:none;}.cls-3,.cls-6,.cls-7,.cls-8,.cls-9{stroke-linecap:round;}.cls-3,.cls-6,.cls-8,.cls-9{stroke-linejoin:round;}.cls-3,.cls-9{stroke-width:9px;}.cls-4,.cls-5{fill:#fff;}.cls-4{stroke:#fff;}.cls-6{stroke:#9b9b9b;}.cls-7{stroke:#0061fa;}.cls-8{stroke:#ff2b4a;}.cls-10{fill:#fd8571;}.cls-11{fill:#feb0a3;}.cls-12{fill:#0061fa;}.cls-13{fill:#de0020;}.cls-14{fill:#ff2b4a;}.cls-15{fill:#0043ae;}</style></defs><polygon class="cls-1" points="534.04 363.2 1601.12 456.63 1838.1 1466.95 1315.34 1673.41 330.82 1649.97 146.28 941.85 534.04 363.2"/><rect class="cls-2" x="1592.32" y="1228.52" width="261.4" height="34.46" rx="17.23"/><rect class="cls-2" x="146.28" y="529.32" width="339.84" height="34.46" rx="17.23"/><circle class="cls-2" cx="1228.24" cy="1591.66" r="42.93"/><circle class="cls-2" cx="1473.63" cy="453.4" r="28.46"/><circle class="cls-2" cx="195.92" cy="1238.55" r="28.46"/><path class="cls-3" d="M148.65,1609s7.7-86.14,61.15-86.14c49.92,0,62.95,86.14,42,86.14s-14.57-49.47,15.91-49.47,34,49.47,34,49.47h216.6"/><path class="cls-3" d="M1847,570.63s-8-83.93-59.19-83.93-81.29,83.93-37.11,83.93,28.71-86.14-24.74-86.14c-49.92,0-63,86.14-42,86.14s14.57-49.48-15.91-49.48-34,49.48-34,49.48h-216.6"/><circle class="cls-2" cx="256.95" cy="1036.51" r="6.57"/><circle class="cls-2" cx="1756.87" cy="809.9" r="6.57"/><circle class="cls-2" cx="876.47" cy="1462.94" r="6.57"/><path class="cls-2" d="M787.91,1467,720.22,872a36.21,36.21,0,0,0-40.08-31.88l-263.37,30a36.22,36.22,0,0,0-31.89,40.08l67.82,596.1a36.22,36.22,0,0,0,40.24,31.87L756.18,1507A36.21,36.21,0,0,0,787.91,1467Z"/><path class="cls-4" d="M771,1450.09l-65-571a26.79,26.79,0,0,0-29.66-23.6l-37.46,4.26.09.81c1.9,16.7-11,23.7-27.7,25.6l-117.1,13.32c-16.69,1.9-30.85-2-32.75-18.72l-.09-.81-37.45,4.26a26.82,26.82,0,0,0-23.61,29.67l65,571a26.82,26.82,0,0,0,29.67,23.6l252.46-28.72A26.81,26.81,0,0,0,771,1450.09Z"/><rect class="cls-5" x="522.3" y="869.32" width="57.69" height="4.21" rx="2.1" transform="translate(-94.98 67.89) rotate(-6.49)"/><path class="cls-3" d="M480.13,978.4c9.74,0,18.42-4.58,24.95-10.14a22,22,0,0,0,7-21.4,11.64,11.64,0,0,0-7.95-8.55,12.94,12.94,0,0,0-9.16.47c-5.29,2.49-5.3,7.68-4.44,11.87,1.55,7.6,4.39,15.45,12.19,20.47,6.75,4.34,19.47,4.69,24.34-1.37,1.9-2.36,3.41-12.07-5.91-10.54-4.41.73-4,7.62-1.3,10.26a11.46,11.46,0,0,0,9,3.21c3.39-.25,13.29-.72,17.11-4.19,2.41-2.19,3.8-6.53.53-8a6.81,6.81,0,0,0-8.36,2.27c-2.13,3.44,2,6.82,6.65,7a15.67,15.67,0,0,0,10.94-3.3"/><line class="cls-3" x1="461.33" y1="980.73" x2="427.2" y2="984.61"/><line class="cls-3" x1="459.16" y1="961.62" x2="425.03" y2="965.51"/><line class="cls-3" x1="456.98" y1="942.52" x2="422.86" y2="946.4"/><line class="cls-6" x1="415.03" y1="1043.39" x2="720.76" y2="1008.6"/><line class="cls-6" x1="424.59" y1="1127.41" x2="730.32" y2="1092.63"/><line class="cls-6" x1="434.15" y1="1211.44" x2="739.88" y2="1176.66"/><line class="cls-6" x1="443.71" y1="1295.47" x2="749.44" y2="1260.68"/><line class="cls-6" x1="453.27" y1="1379.49" x2="759" y2="1344.71"/><line class="cls-6" x1="462.83" y1="1463.52" x2="768.56" y2="1428.73"/><line class="cls-6" x1="458.71" y1="1038.42" x2="506.51" y2="1458.55"/><line class="cls-6" x1="502.38" y1="1033.45" x2="550.18" y2="1453.58"/><line class="cls-6" x1="546.06" y1="1028.48" x2="593.86" y2="1448.61"/><line class="cls-6" x1="589.73" y1="1023.51" x2="637.53" y2="1443.64"/><line class="cls-6" x1="633.41" y1="1018.54" x2="681.21" y2="1438.67"/><line class="cls-6" x1="677.08" y1="1013.57" x2="724.88" y2="1433.7"/><line class="cls-7" x1="507.21" y1="1132.95" x2="476.09" y2="1136.49"/><line class="cls-7" x1="648.39" y1="1201.14" x2="617.27" y2="1204.68"/><line class="cls-7" x1="746.3" y1="1285.5" x2="715.18" y2="1289.04"/><line class="cls-7" x1="569.7" y1="1293.79" x2="538.58" y2="1297.33"/><line class="cls-8" x1="571.03" y1="1305.44" x2="539.9" y2="1308.98"/><line class="cls-8" x1="744.97" y1="1273.85" x2="713.85" y2="1277.39"/><line class="cls-8" x1="490.47" y1="1388.72" x2="459.34" y2="1392.26"/><line class="cls-8" x1="604.16" y1="1206.17" x2="573.04" y2="1209.71"/><line class="cls-8" x1="682.6" y1="1112.99" x2="651.48" y2="1116.53"/><path class="cls-5" d="M1251.09,543.75l-518,88.53a9.6,9.6,0,0,0-7.84,11.08l128.26,750.5a9.58,9.58,0,0,0,11.08,7.84l518-88.52a9.59,9.59,0,0,0,7.84-11.08L1262.16,551.6A9.59,9.59,0,0,0,1251.09,543.75Zm-467.8,136.7a10.26,10.26,0,1,1,8.39-11.84A10.27,10.27,0,0,1,783.29,680.45ZM856,668a10.26,10.26,0,1,1,8.38-11.84A10.27,10.27,0,0,1,856,668Zm72.74-12.43a10.26,10.26,0,1,1,8.38-11.84A10.26,10.26,0,0,1,928.77,655.59Zm72.73-12.43a10.26,10.26,0,1,1,8.39-11.84A10.27,10.27,0,0,1,1001.5,643.16Zm72.74-12.43a10.26,10.26,0,1,1,8.38-11.84A10.26,10.26,0,0,1,1074.24,630.73ZM1147,618.29a10.26,10.26,0,1,1,8.38-11.84A10.24,10.24,0,0,1,1147,618.29Zm72.73-12.43A10.26,10.26,0,1,1,1228.1,594,10.26,10.26,0,0,1,1219.71,605.86Z"/><line class="cls-3" x1="782.26" y1="674.39" x2="771.81" y2="613.25"/><line class="cls-3" x1="854.27" y1="662.09" x2="843.82" y2="600.94"/><line class="cls-3" x1="927.01" y1="649.66" x2="916.56" y2="588.51"/><line class="cls-3" x1="999.74" y1="637.22" x2="989.29" y2="576.08"/><line class="cls-3" x1="1072.48" y1="624.79" x2="1062.03" y2="563.65"/><line class="cls-3" x1="1145.21" y1="612.36" x2="1134.77" y2="551.22"/><line class="cls-3" x1="1218.68" y1="599.81" x2="1208.23" y2="538.66"/><rect class="cls-3" x="797.27" y="806.66" width="57.84" height="57.84" rx="11.61" transform="translate(-128.95 151.12) rotate(-9.7)"/><line class="cls-9" x1="784.93" y1="750.9" x2="1241.57" y2="672.86"/><path class="cls-3" d="M887.21,854.84c18.58-10.76,25.87-37.28,15.4-56-.87-1.54-1.94-3.12-3.59-3.76-3.93-1.52-7.41,3.09-8.73,7.1a52.83,52.83,0,0,0,3.81,41.44,22.19,22.19,0,0,0,6.64,8,19.57,19.57,0,0,0,11.19,2.92c16.91-.11,32.08-16,31.48-32.85-.11-2.95-.83-6.22-3.29-7.87-4.46-3-10.39,1.83-12,7-3.19,10.18,2.9,22.14,12.76,26.22s22.12.37,28.7-8,7.39-20.65,2.73-30.25c-11,2.56-14.49,19.89-5.29,26.48s24.51-2.27,23.37-13.53c-1.77,3.48,1,8.33,4.84,8.67s7.41-3.89,6.42-7.66c14.35,13.49,37.72,15.19,54.6,5s25.83-31.27,20.64-50.28c-2.42-8.89-9.81-18.09-18.92-16.65-7.6,1.21-12.2,9.43-13,17.09-2,20.91,18.2,39.87,39.21,40,6.86.06,14-1.61,19.27-6s8.48-11.65,6.7-18.28c-7.55,5.12-1.8,18.55,7.18,20.07s17.45-4.54,23.79-11.09"/><path class="cls-3" d="M808.21,829.94l20.65,15.56,12.85-54"/><rect class="cls-3" x="832.02" y="1016.45" width="57.84" height="57.84" rx="11.61" transform="translate(-163.8 159.97) rotate(-9.7)"/><path class="cls-3" d="M923,1068.35c16.91-.12,32.08-15.95,31.48-32.85-.11-3-.83-6.23-3.28-7.88-4.47-3-10.39,1.83-12,7-3.2,10.18,2.9,22.13,12.75,26.21s22.13.37,28.7-8,7.4-20.65,2.73-30.24c-11,2.55-14.49,19.88-5.28,26.48s24.5-2.27,23.36-13.54c-1.77,3.48,1,8.33,4.84,8.68s7.42-3.9,6.42-7.67c14.35,13.49,37.72,15.2,54.6,5s25.83-31.27,20.65-50.28c-2.43-8.89-9.82-18.09-18.92-16.64-7.6,1.2-12.21,9.42-13,17.08-2,20.92,18.2,39.87,39.21,40,6.86,0,14-1.62,19.27-6"/><path class="cls-3" d="M843,1039.75l20.65,15.56,12.85-54"/><rect class="cls-3" x="815.93" y="907.12" width="57.84" height="57.84" rx="11.61" transform="translate(-145.61 155.7) rotate(-9.7)"/><path class="cls-3" d="M906.05,954.12a54.29,54.29,0,0,0,28.28-6c17-9.08,26.3-27.49,21.48-43.81-2.26-7.64-9.46-15.45-18.56-14-7.6,1.18-12.34,8.37-13.22,15-2.4,18.1,17.42,34.1,38.36,33.85,6.84-.08,13.94-1.65,19.32-5.5s8.66-10.22,7-15.91c-7.61,4.56-2.12,16,6.81,17.2s17.47-4.25,23.9-10"/><path class="cls-3" d="M851.72,916a131.44,131.44,0,0,0-15.36,40.55"/><path class="cls-3" d="M829,926.59,857,945"/><path class="cls-10" d="M1663.32,1473s-29.68,44.87-74.74,74.09-110.73,44.61-110.73,44.61l19.51-161.43Z"/><path class="cls-10" d="M1195,1009.7s4.86,52.07,31.32,51.1,75.84-46.16,75.84-46.16,38.41,75.66,62.07,105.84,109.38-39.16,109.38-39.16l-74.19-136.74Z"/><path class="cls-11" d="M1663.22,1473s-99.74-127.52-122.82-196.89-4.12-165.81,0-208.67-11.54-57.7-38.74-76.66-121.17-84.08-145.9-99.74-42.87,4.94-64.3,22.25-100.47,76.48-111.83,87.1-18.69,42.5,38.83,30.78,106.25-55.69,106.25-55.69,19,15.76,30.41,22,34.8,16.86,34.8,16.86l27.57,47.62s-25.19,35.17-43.32,50.56-31.33,22.53-31.33,22.53-46.71-41.76-70.89-62.1-72-39.56-89.57-20.88,6.59,57.7,39.56,86.28,71.17,140.59,89.3,168.39,166.51,285,166.51,285,27.21-47.64,72.54-77.4S1663.22,1473,1663.22,1473Z"/><polygon class="cls-12" points="1146.07 1056.06 1656.11 1136.41 1663.32 1090.66 1153.28 1010.31 1106.79 1026.43 1146.07 1056.06"/><path class="cls-13" d="M1601.57,1104.38c-2,12.63,2.74,23.87,10.56,25.1l44,6.93,7.21-45.75-44-6.93C1611.52,1082.5,1603.56,1091.74,1601.57,1104.38Z"/><ellipse class="cls-14" cx="1659.71" cy="1113.54" rx="23.16" ry="14.34" transform="translate(301.46 2579.74) rotate(-81.05)"/><path class="cls-1" d="M1153.43,1010.33l-.15,0-46.49,16.12,39.28,29.63.15,0c-5.64-3.63-8.66-13.56-6.93-24.53S1146.94,1012.06,1153.43,1010.33Z"/><path d="M1119.22,1022.12l-12.43,4.31,10.5,7.92a39.06,39.06,0,0,1,.49-6.19A38.63,38.63,0,0,1,1119.22,1022.12Z"/><path class="cls-11" d="M1308.87,1177.33a138.24,138.24,0,0,0,26.63-48.89c-14.12-12.56-45.27-40.18-63.55-55.55-24.18-20.33-72-39.56-89.57-20.88s6.59,57.7,39.56,86.28c14.9,12.91,30.86,42.86,45.56,74.37A177.73,177.73,0,0,0,1308.87,1177.33Z"/><path class="cls-3" d="M1348.63,1138.52c8.74,5.48,19.73,5.36,30,5"/><path class="cls-2" d="M1197,1056.14h21.39a10,10,0,0,1,10,10v4.55a20,20,0,0,1-20,20H1207a20,20,0,0,1-20-20v-4.55a10,10,0,0,1,10-10Z" transform="translate(-401.77 1216.01) rotate(-46.69)"/><path d="M1179.92,1005.31a8.26,8.26,0,0,0,11.58,1.55l12.33-9.42a16.52,16.52,0,0,0,4.83-20.35c-14.07,10.89-25.27,19.74-29,23.26a22.51,22.51,0,0,0-1.93,2.06Z"/><rect class="cls-15" x="391.01" y="627.95" width="90.47" height="274.03" rx="7.85" transform="translate(868.75 -2.12) rotate(59.11)"/><rect class="cls-12" x="395.46" y="620.11" width="100.02" height="278.66" rx="7.85" transform="translate(868.51 -12.72) rotate(59.11)"/><rect x="552.08" y="622.58" width="100.02" height="86.35" rx="7.85" transform="translate(864.32 -192.72) rotate(59.11)"/><rect class="cls-15" x="560.32" y="623.43" width="54.95" height="101.73" rx="7.85" transform="translate(864.7 -176.29) rotate(59.11)"/></svg>