<svg preserveAspectRatio="xMidYMid meet" width="100%" height="100%" overflow="visible" style="display: block;" viewBox="0 0 14.489 13.6034" fill="none" xmlns="http://www.w3.org/2000/svg">
<path id="Snapchat" d="M14.3431 10.4151C12.2661 10.0732 11.3359 7.95123 11.2975 7.86068L11.2931 7.85271C11.2341 7.75623 11.1969 7.648 11.1841 7.53561C11.1713 7.42323 11.1833 7.30941 11.2192 7.20215C11.3583 6.87324 11.8205 6.7269 12.1255 6.62982C12.2023 6.60592 12.274 6.58273 12.3305 6.56028C12.8833 6.34294 12.9956 6.11618 12.9927 5.96477C12.9782 5.87065 12.936 5.78297 12.8715 5.71291C12.807 5.64285 12.7231 5.59359 12.6305 5.57139L12.6254 5.56994C12.5434 5.53681 12.4559 5.51983 12.3675 5.51996C12.2895 5.51883 12.2122 5.53439 12.1407 5.5656C11.925 5.67465 11.6899 5.74013 11.4489 5.7583C11.3097 5.76156 11.1739 5.71593 11.0649 5.62935L11.0881 5.24539L11.091 5.1983C11.2306 4.22214 11.1714 3.22784 10.9171 2.27511C10.6171 1.59099 10.1222 1.0104 9.49427 0.605836C8.86629 0.201274 8.13305 -0.00933157 7.38611 0.000317299L7.09488 0.0039395C6.34924 -0.00521782 5.61742 0.205431 4.99075 0.609594C4.36409 1.01376 3.87033 1.59353 3.57112 2.27656C3.31649 3.22823 3.25686 4.22155 3.3958 5.19685C3.40546 5.34126 3.41415 5.48567 3.42188 5.63007C3.30175 5.7241 3.15094 5.77006 2.9988 5.75903C2.7428 5.74803 2.4922 5.68179 2.2642 5.56487C2.20835 5.54017 2.14775 5.52805 2.0867 5.52937C1.96085 5.52455 1.83663 5.55917 1.73142 5.6284C1.6262 5.69763 1.54526 5.79801 1.49989 5.91551C1.44049 6.22703 1.8853 6.45378 2.15625 6.56028C2.21421 6.58346 2.28521 6.60592 2.36127 6.62982C2.66699 6.7269 3.1292 6.87324 3.26829 7.20215C3.30409 7.30942 3.31602 7.42323 3.30326 7.53559C3.29049 7.64796 3.25334 7.75619 3.1944 7.85271L3.19005 7.86068C2.98996 8.29675 2.72923 8.70235 2.41561 9.06545C1.84583 9.77385 1.03971 10.253 0.145159 10.4151C0.102952 10.4222 0.0648338 10.4446 0.0381005 10.478C0.0113671 10.5114 -0.00210343 10.5535 0.000267154 10.5962C0.0019009 10.6287 0.00925883 10.6605 0.0220009 10.6904C0.15023 10.9882 0.789201 11.2337 1.87154 11.4011C1.97296 11.417 2.01498 11.5822 2.07439 11.8517C2.09757 11.9604 2.1222 12.0727 2.15625 12.1886C2.16757 12.2399 2.19754 12.2853 2.24037 12.3158C2.28321 12.3463 2.33584 12.3598 2.38808 12.3538C2.49153 12.3481 2.5943 12.3336 2.69525 12.3103C2.96187 12.2521 3.23375 12.2212 3.50664 12.2183C3.70302 12.2186 3.89904 12.2351 4.09273 12.2676C4.50133 12.371 4.8814 12.5652 5.20477 12.8355C5.75058 13.3016 6.43651 13.5719 7.15356 13.6034C7.17747 13.6034 7.2021 13.6027 7.226 13.6006C7.25498 13.602 7.29483 13.6034 7.3354 13.6034C8.05289 13.572 8.7393 13.3017 9.28564 12.8355C9.60853 12.5653 9.9881 12.3711 10.3962 12.2676C10.5897 12.2352 10.7855 12.2187 10.9816 12.2183C11.2543 12.2196 11.5261 12.2485 11.793 12.3045C11.8943 12.3265 11.9973 12.3393 12.1009 12.3429H12.1183C12.1672 12.3468 12.2158 12.3328 12.2551 12.3034C12.2944 12.2741 12.3218 12.2315 12.332 12.1835C12.3636 12.073 12.3911 11.9613 12.4146 11.8488C12.4732 11.58 12.516 11.4156 12.6174 11.3997C13.6998 11.233 14.3394 10.9867 14.4655 10.6911C14.4787 10.6613 14.4865 10.6295 14.4887 10.597C14.4911 10.5542 14.4776 10.5121 14.4509 10.4787C14.4241 10.4453 14.386 10.4229 14.3438 10.4158L14.3431 10.4151Z" fill="var(--fill-0, white)"/>
</svg>
