<svg preserveAspectRatio="xMidYMid meet" width="100%" height="100%" overflow="visible" style="display: block;" viewBox="0 0 13.4999 18" fill="none" xmlns="http://www.w3.org/2000/svg">
<path id="Element" d="M8.99995 0.843797C8.99995 0.482075 8.76938 0.160595 8.42676 0.0446061C8.08414 -0.071383 7.7057 0.043927 7.48597 0.331264L0.173515 9.89371C-0.021481 10.1487 -0.0548886 10.4923 0.0873273 10.78C0.229543 11.0678 0.522743 11.25 0.843751 11.25H4.49998V17.1562C4.49998 17.5179 4.73055 17.8394 5.07317 17.9554C5.41579 18.0714 5.79423 17.9561 6.01396 17.6687L13.3264 8.10629C13.5214 7.8513 13.5548 7.50774 13.4126 7.21995C13.2704 6.93217 12.9772 6.75001 12.6562 6.75001H8.99995V0.843797Z" fill="currentColor"/>
</svg>
